<?xml version="1.0" encoding="UTF-8"?>
<svg xmlns="http://www.w3.org/2000/svg" xmlns:xlink="http://www.w3.org/1999/xlink" width="100px" height="px" viewBox="0 0 100 99" version="1.1">
<g id="surface1">
<path style=" stroke:none;fill-rule:nonzero;fill:rgb(100%,100%,100%);fill-opacity:1;" d="M 99.964844 49.5 C 99.964844 22.160156 77.601562 0 50.015625 0 C 22.425781 0 0.0625 22.160156 0.0625 49.5 C 0.0625 76.839844 22.425781 99 50.015625 99 C 77.601562 99 99.964844 76.839844 99.964844 49.5 Z M 99.964844 49.5 "/>
<path style=" stroke:none;fill-rule:nonzero;fill:rgb(0%,0%,0%);fill-opacity:1;" d="M 43.308594 33.40625 L 49.820312 33.40625 L 35.066406 65.621094 L 28.554688 65.621094 Z M 43.308594 33.40625 "/>
<path style=" stroke:none;fill-rule:nonzero;fill:rgb(0%,0%,0%);fill-opacity:1;" d="M 56.335938 33.40625 L 49.824219 33.40625 L 64.574219 65.621094 L 71.089844 65.621094 Z M 56.335938 33.40625 "/>
<path style=" stroke:none;fill-rule:nonzero;fill:rgb(0%,0%,0%);fill-opacity:1;" d="M 49.765625 49.316406 L 56.269531 65.675781 L 43.265625 65.675781 Z M 49.765625 49.316406 "/>
<path style=" stroke:none;fill-rule:nonzero;fill:rgb(0%,0%,0%);fill-opacity:1;" d="M 85.621094 54.472656 C 83.109375 71.691406 68.15625 84.921875 50.082031 84.921875 C 32.011719 84.921875 17.054688 71.691406 14.542969 54.472656 L 8.945312 54.472656 C 11.492188 74.738281 28.941406 90.421875 50.082031 90.421875 C 71.226562 90.421875 88.671875 74.738281 91.222656 54.472656 Z M 85.621094 54.472656 "/>
<path style=" stroke:none;fill-rule:nonzero;fill:rgb(0%,0%,0%);fill-opacity:1;" d="M 14.542969 44.199219 C 17.054688 26.980469 32.011719 13.75 50.082031 13.75 C 68.15625 13.75 83.109375 26.980469 85.621094 44.199219 L 91.222656 44.199219 C 88.671875 23.933594 71.226562 8.25 50.082031 8.25 C 28.941406 8.25 11.492188 23.933594 8.945312 44.199219 Z M 14.542969 44.199219 "/>
</g>
</svg>
