<?xml version="1.0" encoding="UTF-8"?>
<svg xmlns="http://www.w3.org/2000/svg" xmlns:xlink="http://www.w3.org/1999/xlink" width="100px" height="px" viewBox="0 0 100 99" version="1.1">
<g id="surface1">
<path style=" stroke:none;fill-rule:nonzero;fill:rgb(0%,0%,0%);fill-opacity:1;" d="M 99.949219 49.5 C 99.949219 22.160156 77.585938 0 50 0 C 22.414062 0 0.0507812 22.160156 0.0507812 49.5 C 0.0507812 76.839844 22.414062 99 50 99 C 77.585938 99 99.949219 76.839844 99.949219 49.5 Z M 99.949219 49.5 "/>
<path style=" stroke:none;fill-rule:nonzero;fill:rgb(100%,100%,100%);fill-opacity:1;" d="M 43.292969 33.40625 L 49.804688 33.40625 L 35.054688 65.621094 L 28.539062 65.621094 Z M 43.292969 33.40625 "/>
<path style=" stroke:none;fill-rule:nonzero;fill:rgb(100%,100%,100%);fill-opacity:1;" d="M 56.320312 33.40625 L 49.808594 33.40625 L 64.5625 65.621094 L 71.074219 65.621094 Z M 56.320312 33.40625 "/>
<path style=" stroke:none;fill-rule:nonzero;fill:rgb(100%,100%,100%);fill-opacity:1;" d="M 49.753906 49.316406 L 56.253906 65.675781 L 43.25 65.675781 Z M 49.753906 49.316406 "/>
<path style=" stroke:none;fill-rule:nonzero;fill:rgb(100%,100%,100%);fill-opacity:1;" d="M 85.605469 54.472656 C 83.09375 71.691406 68.140625 84.921875 50.070312 84.921875 C 31.996094 84.921875 17.042969 71.691406 14.53125 54.472656 L 8.929688 54.472656 C 11.480469 74.738281 28.925781 90.421875 50.070312 90.421875 C 71.210938 90.421875 88.65625 74.738281 91.207031 54.472656 Z M 85.605469 54.472656 "/>
<path style=" stroke:none;fill-rule:nonzero;fill:rgb(100%,100%,100%);fill-opacity:1;" d="M 14.53125 44.199219 C 17.042969 26.980469 31.996094 13.75 50.070312 13.75 C 68.140625 13.75 83.09375 26.980469 85.605469 44.199219 L 91.207031 44.199219 C 88.65625 23.933594 71.210938 8.25 50.070312 8.25 C 28.925781 8.25 11.480469 23.933594 8.929688 44.199219 Z M 14.53125 44.199219 "/>
</g>
</svg>
